<?xml version="1.0" encoding="utf-8"?>
<!-- Generator: Adobe Illustrator 22.1.0, SVG Export Plug-In . SVG Version: 6.00 Build 0)  -->
<svg version="1.1" id="Layer_1" xmlns="http://www.w3.org/2000/svg" xmlns:xlink="http://www.w3.org/1999/xlink" x="0px" y="0px"
	 viewBox="0 0 110.4 110.4" style="enable-background:new 0 0 110.4 110.4;" xml:space="preserve">
<style type="text/css">
	.st0{fill:url(#SVGID_1_);}
</style>
<g>
	<linearGradient id="SVGID_1_" gradientUnits="userSpaceOnUse" x1="0" y1="55.2008" x2="110.4015" y2="55.2008">
		<stop  offset="0%" style="stop-color:#f25cc0"/>
		<stop  offset="100%" style="stop-color:#f25cc0"/>
	</linearGradient>
	<path class="st0" d="M55.2,110.4C24.8,110.4,0,85.6,0,55.2S24.8,0,55.2,0s55.2,24.8,55.2,55.2S85.6,110.4,55.2,110.4z M55.2,2.1
		C25.9,2.1,2.1,25.9,2.1,55.2s23.8,53.1,53.1,53.1s53.1-23.8,53.1-53.1S84.5,2.1,55.2,2.1z M74.3,68.1H36.6c-1.7,0-3.1-1.4-3.1-3.1
		V35.3c0-1.7,1.4-3.1,3.1-3.1h37.7c1.7,0,3.1,1.4,3.1,3.1v29.7C77.4,66.7,76,68.1,74.3,68.1z M36.6,34.3c-0.6,0-1,0.5-1,1v29.7
		c0,0.6,0.5,1,1,1h37.7c0.6,0,1-0.5,1-1V35.3c0-0.6-0.5-1-1-1H36.6z M98.2,67c0-0.6-0.5-1-1-1h-9.8c-0.6,0-1-0.5-1-1V35.3
		c0-0.6,0.5-1,1-1h9.8c0.6,0,1-0.5,1-1c0-0.6-0.5-1-1-1h-9.8c-1.7,0-3.1,1.4-3.1,3.1v29.7c0,1.7,1.4,3.1,3.1,3.1h9.8
		C97.7,68.1,98.2,67.6,98.2,67z M25.5,64.9V35.3c0-1.7-1.4-3.1-3.1-3.1h-9.8c-0.6,0-1,0.5-1,1c0,0.6,0.5,1,1,1h9.8c0.6,0,1,0.5,1,1
		v29.7c0,0.6-0.5,1-1,1h-9.8c-0.6,0-1,0.5-1,1s0.5,1,1,1h9.8C24.1,68.1,25.5,66.7,25.5,64.9z M67.6,76.9c0-0.6-0.5-1-1-1h-32
		c-0.6,0-1,0.5-1,1c0,0.6,0.5,1,1,1h32C67.1,77.9,67.6,77.4,67.6,76.9z M53.2,87.4c0-0.6-0.5-1-1-1H34.5c-0.6,0-1,0.5-1,1s0.5,1,1,1
		h17.6C52.7,88.4,53.2,87.9,53.2,87.4z M50.1,59c-0.2,0-0.3,0-0.5-0.1c-0.3-0.2-0.6-0.5-0.6-0.9V41.9c0-0.4,0.2-0.7,0.6-0.9
		c0.3-0.2,0.8-0.2,1.1,0.1L62.5,49c0.3,0.2,0.5,0.5,0.5,0.9c0,0.3-0.2,0.7-0.5,0.9l-11.8,8.1C50.5,58.9,50.3,59,50.1,59z M51.1,43.8
		V56l8.9-6.1L51.1,43.8z"/>
</g>
</svg>
