<?xml version="1.0" encoding="utf-8"?>
<!-- Generator: Adobe Illustrator 22.1.0, SVG Export Plug-In . SVG Version: 6.00 Build 0)  -->
<svg version="1.1" id="Layer_1" xmlns="http://www.w3.org/2000/svg" xmlns:xlink="http://www.w3.org/1999/xlink" x="0px" y="0px"
	 viewBox="0 0 110.4 110.4" style="enable-background:new 0 0 110.4 110.4;" xml:space="preserve">
<style type="text/css">
	.st0{fill:url(#SVGID_1_);}
</style>
<g>
	<linearGradient id="SVGID_1_" gradientUnits="userSpaceOnUse" x1="0" y1="55.2008" x2="110.4015" y2="55.2008">
		<stop  offset="0%" style="stop-color:#f25cc0"/>
		<stop  offset="100%" style="stop-color:#f25cc0"/>
	</linearGradient>
	<path class="st0" d="M55.2,110.4C24.8,110.4,0,85.6,0,55.2S24.8,0,55.2,0s55.2,24.8,55.2,55.2S85.6,110.4,55.2,110.4z M55.2,2.1
		C25.9,2.1,2.1,25.9,2.1,55.2s23.8,53.1,53.1,53.1s53.1-23.8,53.1-53.1S84.5,2.1,55.2,2.1z M54.8,80.5c0-0.6-0.5-1-1-1H31.1
		c-1,0-1.8-0.8-1.8-1.8V29c0-1,0.8-1.8,1.8-1.8h35.7c1,0,1.8,0.8,1.8,1.8v6c0,0.6,0.5,1,1,1c0.6,0,1-0.5,1-1v-6
		c0-2.2-1.8-3.9-3.9-3.9H31.1c-2.2,0-3.9,1.8-3.9,3.9v48.6c0,2.2,1.8,3.9,3.9,3.9h22.7C54.4,81.5,54.8,81.1,54.8,80.5z M80.6,81.5
		H63c-2.2,0-3.9-1.8-3.9-3.9v-33c0-2.2,1.8-3.9,3.9-3.9h17.6c2.2,0,3.9,1.8,3.9,3.9v33C84.5,79.8,82.8,81.5,80.6,81.5z M63,42.8
		c-1,0-1.8,0.8-1.8,1.8v33c0,1,0.8,1.8,1.8,1.8h17.6c1,0,1.8-0.8,1.8-1.8v-33c0-1-0.8-1.8-1.8-1.8H63z M49.6,73.2
		c-0.9,0-1.6,0.7-1.6,1.6c0,0.9,0.7,1.6,1.6,1.6c0.9,0,1.6-0.7,1.6-1.6C51.2,73.9,50.5,73.2,49.6,73.2z M72,73.2
		c-0.9,0-1.6,0.7-1.6,1.6c0,0.9,0.7,1.6,1.6,1.6s1.6-0.7,1.6-1.6C73.6,73.9,72.9,73.2,72,73.2z"/>
</g>
</svg>
