<?xml version="1.0" encoding="utf-8"?>
<!-- Generator: Adobe Illustrator 22.1.0, SVG Export Plug-In . SVG Version: 6.00 Build 0)  -->
<svg version="1.1" id="Layer_1" xmlns="http://www.w3.org/2000/svg" xmlns:xlink="http://www.w3.org/1999/xlink" x="0px" y="0px"
	 viewBox="0 0 110.4 110.4" style="enable-background:new 0 0 110.4 110.4;" xml:space="preserve">
<style type="text/css">
	.st0{fill:url(#SVGID_1_);}
</style>
<g>
	<linearGradient id="SVGID_1_" gradientUnits="userSpaceOnUse" x1="0" y1="55.1997" x2="110.3995" y2="55.1997">
		<stop  offset="0%" style="stop-color:#f25cc0"/>
		<stop  offset="100%" style="stop-color:#f25cc0"/>

	</linearGradient>
	<path class="st0" d="M48.5,34.2c-4.1-4.1-9.5-6.3-15.3-6.3c-5.8,0-11.2,2.3-15.3,6.3c-8.4,8.4-8.4,22.2,0,30.6
		c4.2,4.2,9.8,6.3,15.3,6.3c5.5,0,11.1-2.1,15.3-6.3C56.9,56.4,56.9,42.7,48.5,34.2z M19.5,63.2c-7.5-7.5-7.5-19.8,0-27.3
		c3.6-3.6,8.5-5.6,13.6-5.6c5.2,0,10,2,13.6,5.6c7.5,7.5,7.5,19.8,0,27.3C39.3,70.7,27,70.7,19.5,63.2z M70,79.6
		c0.8,0.8,1.2,1.9,1,3.2c-0.1,1.1-0.7,2.2-1.6,3.1c-1,1-2.4,1.6-3.6,1.6c-1,0-1.9-0.3-2.6-1L47.6,70.8c-0.5-0.5-0.5-1.2,0-1.7
		c0.5-0.5,1.2-0.5,1.7,0l15.6,15.6c0.6,0.6,2,0.4,2.9-0.5c0.5-0.5,0.8-1.1,0.9-1.7c0-0.3,0-0.8-0.3-1.2L52.7,65.7
		c-0.5-0.5-0.5-1.2,0-1.7c0.5-0.5,1.2-0.5,1.7,0L70,79.6z M98.9,36.4c0,0.7-0.5,1.2-1.2,1.2H60c-0.7,0-1.2-0.5-1.2-1.2
		s0.5-1.2,1.2-1.2h37.7C98.4,35.2,98.9,35.8,98.9,36.4z M90.9,44.6c0,0.7-0.5,1.2-1.2,1.2H60c-0.7,0-1.2-0.5-1.2-1.2
		c0-0.7,0.5-1.2,1.2-1.2h29.7C90.3,43.4,90.9,43.9,90.9,44.6z M81.3,51.9c0,0.7-0.5,1.2-1.2,1.2H60c-0.7,0-1.2-0.5-1.2-1.2
		c0-0.7,0.5-1.2,1.2-1.2h20.1C80.8,50.8,81.3,51.3,81.3,51.9z M55.2,0C24.8,0,0,24.8,0,55.2c0,30.4,24.8,55.2,55.2,55.2
		c30.4,0,55.2-24.8,55.2-55.2C110.4,24.8,85.6,0,55.2,0z M55.2,108C26.1,108,2.4,84.3,2.4,55.2c0-29.1,23.7-52.8,52.8-52.8
		c29.1,0,52.8,23.7,52.8,52.8C108,84.3,84.3,108,55.2,108z"/>
</g>
</svg>
