<?xml version="1.0" encoding="utf-8"?>
<!-- Generator: Adobe Illustrator 22.1.0, SVG Export Plug-In . SVG Version: 6.00 Build 0)  -->
<svg version="1.1" id="Layer_1" xmlns="http://www.w3.org/2000/svg" xmlns:xlink="http://www.w3.org/1999/xlink" x="0px" y="0px"
	 viewBox="0 0 110.4 110.4" style="enable-background:new 0 0 110.4 110.4;" xml:space="preserve">
<style type="text/css">
	.st0{fill:url(#SVGID_1_);}
</style>
<g>
	<linearGradient id="SVGID_1_" gradientUnits="userSpaceOnUse" x1="0" y1="55.1997" x2="110.3995" y2="55.1997">
		<stop  offset="0%" style="stop-color:#f25cc0"/>
		<stop  offset="100%" style="stop-color:#f25cc0"/>
	</linearGradient>
	<path class="st0" d="M41.2,37.5c-0.4-0.2-1-0.1-1.3,0.3l-9,9v-8.2c0-0.5-0.3-0.9-0.7-1.1c-0.4-0.2-1-0.1-1.3,0.3L13.2,53.5
		c-0.5,0.5-0.5,1.2,0,1.7l15.7,15.7c0.3,0.3,0.9,0.4,1.3,0.3c0.4-0.2,0.7-0.6,0.7-1.1v-8.2l9,9c0.2,0.2,0.5,0.3,0.8,0.3
		c0.2,0,0.3,0,0.5-0.1c0.4-0.2,0.7-0.6,0.7-1.1V38.6C42,38.1,41.7,37.7,41.2,37.5z M39.6,67.1l-9-9c-0.2-0.2-0.5-0.3-0.8-0.3
		c-0.2,0-0.3,0-0.5,0.1c-0.4,0.2-0.7,0.6-0.7,1.1v8.2L15.7,54.3l12.8-12.8v8.2c0,0.5,0.3,0.9,0.7,1.1c0.4,0.2,1,0.1,1.3-0.3l9-9
		V67.1z M99.7,53.5L84,37.8c-0.3-0.3-0.9-0.4-1.3-0.3c-0.4,0.2-0.7,0.6-0.7,1.1v8.2l-9-9c-0.3-0.3-0.9-0.4-1.3-0.3
		c-0.4,0.2-0.7,0.6-0.7,1.1V70c0,0.5,0.3,0.9,0.7,1.1c0.4,0.2,1,0.1,1.3-0.3l9-9V70c0,0.5,0.3,0.9,0.7,1.1c0.1,0.1,0.3,0.1,0.5,0.1
		c0.3,0,0.6-0.1,0.8-0.3l15.7-15.7C100.2,54.7,100.2,53.9,99.7,53.5z M84.4,67.1V59c0-0.5-0.3-0.9-0.7-1.1c-0.1-0.1-0.3-0.1-0.5-0.1
		c-0.3,0-0.6,0.1-0.8,0.3l-9,9V41.5l9,9c0.3,0.3,0.9,0.4,1.3,0.3c0.4-0.2,0.7-0.6,0.7-1.1v-8.2l12.8,12.8L84.4,67.1z M54.1,39.1
		v31.4c0,0.7-0.5,1.2-1.2,1.2c-0.7,0-1.2-0.5-1.2-1.2V39.1c0-0.7,0.5-1.2,1.2-1.2C53.6,37.9,54.1,38.4,54.1,39.1z M61.2,39.1v31.4
		c0,0.7-0.5,1.2-1.2,1.2s-1.2-0.5-1.2-1.2V39.1c0-0.7,0.5-1.2,1.2-1.2S61.2,38.4,61.2,39.1z M55.2,0C24.8,0,0,24.8,0,55.2
		c0,30.4,24.8,55.2,55.2,55.2c30.4,0,55.2-24.8,55.2-55.2C110.4,24.8,85.6,0,55.2,0z M55.2,108C26.1,108,2.4,84.3,2.4,55.2
		c0-29.1,23.7-52.8,52.8-52.8c29.1,0,52.8,23.7,52.8,52.8C108,84.3,84.3,108,55.2,108z"/>
</g>
</svg>
