<?xml version="1.0" encoding="utf-8"?>
<!-- Generator: Adobe Illustrator 22.1.0, SVG Export Plug-In . SVG Version: 6.00 Build 0)  -->
<svg version="1.1" id="Layer_1" xmlns="http://www.w3.org/2000/svg" xmlns:xlink="http://www.w3.org/1999/xlink" x="0px" y="0px"
	 viewBox="0 0 110.4 110.4" style="enable-background:new 0 0 110.4 110.4;" xml:space="preserve">
<style type="text/css">
	.st0{fill:url(#SVGID_1_);}
</style>
<g>
	<linearGradient id="SVGID_1_" gradientUnits="userSpaceOnUse" x1="0" y1="55.1824" x2="110.4015" y2="55.1824">
		<stop  offset="0%" style="stop-color:#f25cc0"/>
		<stop  offset="100%" style="stop-color:#f25cc0"/>
	</linearGradient>
	<path class="st0" d="M92.2,80.1c0,0.6-0.5,1.1-1.1,1.1c-0.6,0-1-0.5-1-1.1c0-3.6-0.9-12.1-8.8-12.9c-3.7-0.4-9.8-1-10.3-7
		c-1.2,0.2-2.6,0.3-4,0.3c-0.6,0-1.1-0.5-1.1-1.1c0-0.5,0.5-1,1.1-1c6.9,0,15.4-2.7,18.3-8.7c-1.9-1.5-2.9-4.5-3.9-8
		c-0.7-2.3-1.5-4.9-2.7-7.3c-3.5-7.2-10-7.7-11.9-7.7c-0.6,0-1-0.5-1-1c0-0.6,0.4-1.1,1-1.1c2.2,0,9.7,0.7,13.8,8.9
		c1.2,2.6,2.1,5.2,2.8,7.6c1.1,3.4,1.9,6.4,3.7,7.3c0.5,0.3,0.7,0.8,0.5,1.3c-1.8,4.3-6.8,8.7-14.6,10.2c0.3,4,4,4.7,8.5,5.2
		C88.2,65.8,92.2,71.4,92.2,80.1z M110.4,55.2c0,30.4-24.8,55.2-55.2,55.2C24.8,110.4,0,85.6,0,55.2S24.8,0,55.2,0
		C85.6,0,110.4,24.7,110.4,55.2z M108.3,55.2c0-29.3-23.8-53.1-53.1-53.1C25.9,2.1,2.1,25.9,2.1,55.2s23.8,53.1,53.1,53.1
		C84.5,108.3,108.3,84.5,108.3,55.2z M74.2,82.5c0,0.6-0.5,1-1.1,1c-0.5,0-1-0.4-1-1c0-3.6-0.8-12.1-8.8-12.9
		c-3.4-0.3-8.9-0.9-10.1-5.7c-1.5,1.1-3.2,1.8-5.2,1.8h-1.4c-2,0-3.8-0.7-5.3-1.9c-1.1,4.9-6.7,5.5-10.1,5.8
		c-7.9,0.8-8.8,9.3-8.8,12.9c0,0.6-0.5,1-1.1,1c-0.5,0-1-0.4-1-1c0-8.7,4-14.3,10.6-15c7.6-0.8,8.4-2.9,8.5-5.5
		c-3.4-3.8-5.3-9.4-5.9-11.4c-2.8-0.5-4.1-3.2-4.1-5.8c0-2.5,1.1-4.9,3.3-5.7c-0.4-2.1-1-6.7,1.2-9.6c2.3-3,6.4-3,8.9-2.9
		c4.5-2.5,8.8-3.6,12.5-3.2c3.2,0.4,5.8,1.8,7.1,4c1.6,2.5,1.2,5.4-0.8,7.2c0.1,1.7,0.1,3.4,0,4.4c2.3,0.6,3.5,3.2,3.5,5.7
		c0,2.6-1.3,5.3-4.1,5.8c-0.6,2-2.5,7.8-6,11.5c0.2,4.1,3.9,4.9,8.5,5.3C70.2,68.2,74.2,73.8,74.2,82.5z M59.2,49.4
		c0.1-0.5,0.5-0.8,1-0.8c0.9,0,1.6-0.3,2.1-1.1c0.5-0.7,0.8-1.6,0.8-2.7c0-1.8-0.9-3.8-2.5-3.8c-0.3,0-0.5-0.1-0.8-0.3
		c-0.2-0.2-0.3-0.5-0.3-0.8c0,0,0.1-2.9,0-5.7c0-0.4,0.1-0.7,0.4-0.9c1.8-1.2,1.6-3.3,0.7-4.7c-2.1-3.4-8.4-4.8-17.1,0
		c-0.1,0.1-0.4,0.1-0.5,0.1c-0.5,0-1,0-1.5,0c-2.3,0-4.5,0.4-5.9,2.1c-2.2,2.9-0.6,8.9-0.6,8.9c0.1,0.3,0,0.7-0.2,0.9
		C34.6,40.9,34.3,41,34,41c-1.6,0-2.5,1.9-2.5,3.8c0,1.8,0.8,3.8,2.9,3.8c0.5,0,0.9,0.3,1,0.8c0,0.1,3.6,14.2,11.2,14.2H48
		C55.6,63.5,59.2,49.5,59.2,49.4z"/>
</g>
</svg>
