<svg xmlns="http://www.w3.org/2000/svg" xmlns:xlink="http://www.w3.org/1999/xlink" version="1.1" width="256" height="256" viewBox="0 0 256 256" xml:space="preserve">

<defs>
</defs>
<g style="stroke: none; stroke-width: 0; stroke-dasharray: none; stroke-linecap: butt; stroke-linejoin: miter; stroke-miterlimit: 10; fill: none; fill-rule: nonzero; opacity: 1;" transform="translate(1.4065934065934016 1.4065934065934016) scale(2.81 2.81)" >
	<path d="M 31.2 0 c 25.2 0 2.4 0 27.6 0 S 90 6 90 31.2 s 0 2.4 0 27.6 S 84 90 58.8 90 s -2.4 0 -27.6 0 S 0 84 0 58.8 s 0 -13.528 0 -27.6 C 0 6 6 0 31.2 0 z" style="stroke: none; stroke-width: 1; stroke-dasharray: none; stroke-linecap: butt; stroke-linejoin: miter; stroke-miterlimit: 10; fill: rgb(81,129,184); fill-rule: nonzero; opacity: 1;" transform=" matrix(1 0 0 1 0 0) " stroke-linecap="round" />
	<path d="M 73.703 31.006 c 0.417 -1.391 0 -2.412 -1.985 -2.412 h -6.563 c -1.669 0 -2.438 0.883 -2.855 1.856 c 0 0 -3.337 8.134 -8.065 13.418 c -1.53 1.53 -2.225 2.016 -3.059 2.016 c -0.417 0 -1.021 -0.487 -1.021 -1.877 V 31.006 c 0 -1.669 -0.484 -2.412 -1.875 -2.412 H 37.969 c -1.043 0 -1.67 0.774 -1.67 1.508 c 0 1.582 2.364 1.947 2.607 6.396 v 9.664 c 0 2.119 -0.383 2.503 -1.217 2.503 c -2.225 0 -7.636 -8.171 -10.846 -17.52 c -0.629 -1.817 -1.26 -2.551 -2.937 -2.551 h -6.563 c -1.875 0 -2.25 0.883 -2.25 1.856 c 0 1.738 2.225 10.359 10.359 21.761 c 5.423 7.787 13.063 12.008 20.016 12.008 c 4.171 0 4.688 -0.938 4.688 -2.552 v -5.885 c 0 -1.875 0.395 -2.249 1.716 -2.249 c 0.973 0 2.642 0.487 6.535 4.241 c 4.45 4.45 5.183 6.446 7.686 6.446 h 6.563 c 1.875 0 2.813 -0.938 2.272 -2.788 c -0.592 -1.844 -2.716 -4.519 -5.535 -7.691 c -1.53 -1.808 -3.824 -3.754 -4.519 -4.728 c -0.973 -1.251 -0.695 -1.808 0 -2.92 C 64.874 46.093 72.869 34.83 73.703 31.006 z" style="stroke: none; stroke-width: 1; stroke-dasharray: none; stroke-linecap: butt; stroke-linejoin: miter; stroke-miterlimit: 10; fill: rgb(255,255,255); fill-rule: nonzero; opacity: 1;" transform=" matrix(1 0 0 1 0 0) " stroke-linecap="round" />
</g>
</svg>