<svg xmlns="http://www.w3.org/2000/svg" width="28" height="22" viewBox="0 0 28 22">
  <defs>
    <style>
      .cls-1 {
        fill: #f25cc0;
        fill-rule: evenodd;
      }
    </style>
  </defs>
  <path id="Фигура_62" data-name="Фигура 62" class="cls-1" d="M1065.4,6019h-22.8a2.623,2.623,0,0,0-2.6,2.58v16.84a2.623,2.623,0,0,0,2.6,2.58h22.8a2.623,2.623,0,0,0,2.6-2.58v-16.84A2.623,2.623,0,0,0,1065.4,6019Zm-1.49,4.35v-2.68h1.49a0.9,0.9,0,0,1,.91.91v1.77h-2.4Zm0,5.81v-4.13h2.4v4.13h-2.4Zm0,5.81v-4.13h2.4v4.13h-2.4Zm1.49,4.36h-1.49v-2.69h2.4v1.78A0.9,0.9,0,0,1,1065.4,6039.33Zm-3.18-18.66v18.66h-16.44v-18.66h16.44Zm-20.53.91a0.9,0.9,0,0,1,.91-0.91h1.49v2.68h-2.4v-1.77Zm2.4,3.45v4.13h-2.4v-4.13h2.4Zm0,5.81v4.13h-2.4v-4.13h2.4Zm0,5.8v2.69h-1.49a0.9,0.9,0,0,1-.91-0.91v-1.78h2.4Zm6.66-1.52a0.519,0.519,0,0,0,.27.07,0.6,0.6,0,0,0,.29-0.08l7.37-4.65a0.537,0.537,0,0,0,0-.92l-7.36-4.7a0.555,0.555,0,0,0-.57-0.02,0.547,0.547,0,0,0-.28.48v9.35A0.543,0.543,0,0,0,1050.75,6035.12Zm1.4-2.52v-5.2l4.1,2.6Z" transform="translate(-1040 -6019)"/>
</svg>
