<svg xmlns="http://www.w3.org/2000/svg" width="28" height="21" viewBox="0 0 28 21">
  <defs>
    <style>
      .cls-1 {
        fill: #f25cc0;
        fill-rule: evenodd;
      }
    </style>
  </defs>
  <path id="Фигура_63" data-name="Фигура 63" class="cls-1" d="M1065.6,5950h-23.2a2.407,2.407,0,0,0-2.4,2.4v13.11a2.4,2.4,0,0,0,2.4,2.4h6.88v1.38h-2.62a0.11,0.11,0,0,0-.08,0,0.855,0.855,0,0,0,.04,1.71h14.74a0.856,0.856,0,0,0,.85-0.85,0.843,0.843,0,0,0-.84-0.86h-2.65v-1.38h6.88a2.4,2.4,0,0,0,2.4-2.4V5952.4A2.407,2.407,0,0,0,1065.6,5950Zm-8.59,17.91v1.38h-6.02v-1.38h6.02Zm-15.29-15.51a0.671,0.671,0,0,1,.68-0.69h23.2a0.671,0.671,0,0,1,.68.69v13.11a0.671,0.671,0,0,1-.68.69h-23.2a0.671,0.671,0,0,1-.68-0.69V5952.4Zm11.08,3.87h-1.68v5.49a1.038,1.038,0,0,1-.21.71,0.773,0.773,0,0,1-1.1,0,0.991,0.991,0,0,1-.22-0.71v-5.49h-1.67a0.833,0.833,0,0,1-.59-0.18,0.555,0.555,0,0,1-.19-0.45,0.6,0.6,0,0,1,.2-0.47,0.873,0.873,0,0,1,.58-0.17h4.88a0.85,0.85,0,0,1,.59.18,0.575,0.575,0,0,1,.19.46,0.555,0.555,0,0,1-.19.45A0.85,0.85,0,0,1,1052.8,5956.27Zm2.82-.39,1.71,5.07,1.73-5.11a4.427,4.427,0,0,1,.2-0.56,0.72,0.72,0,0,1,.22-0.28,0.658,0.658,0,0,1,.42-0.13,0.787,0.787,0,0,1,.37.1,0.72,0.72,0,0,1,.26.26,0.6,0.6,0,0,1,.1.33,0.986,0.986,0,0,1-.03.24,1.975,1.975,0,0,1-.08.26c-0.03.09-.06,0.17-0.09,0.26l-1.84,4.95c-0.07.19-.13,0.37-0.2,0.54a2.356,2.356,0,0,1-.22.45,1.046,1.046,0,0,1-.35.31,0.957,0.957,0,0,1-.52.13,1.066,1.066,0,0,1-.53-0.12,0.952,0.952,0,0,1-.34-0.32,2.2,2.2,0,0,1-.23-0.46,5.36,5.36,0,0,1-.2-0.53l-1.81-4.91c-0.03-.08-0.06-0.17-0.09-0.26a1.87,1.87,0,0,1-.08-0.28,0.855,0.855,0,0,1-.04-0.25,0.678,0.678,0,0,1,.21-0.48,0.755,0.755,0,0,1,.54-0.22,0.615,0.615,0,0,1,.55.24A3.419,3.419,0,0,1,1055.62,5955.88Z" transform="translate(-1040 -5950)"/>
</svg>
