<svg xmlns="http://www.w3.org/2000/svg" width="23" height="24.97" viewBox="0 0 23 24.97">
  <defs>
    <style>
      .cls-1 {
        fill: #f25cc0;
        fill-rule: evenodd;
      }
    </style>
  </defs>
  <path id="Фигура_20_копия_7" data-name="Фигура 20 копия 7" class="cls-1" d="M980.979,5666.29a0.934,0.934,0,0,0-.3-0.44l-11.221-11.56a0.838,0.838,0,0,0-1.2,0,0.869,0.869,0,0,0,0,1.23l10.67,11-10.67,10.96a0.866,0.866,0,0,0,0,1.23,0.905,0.905,0,0,0,.616.27,0.818,0.818,0,0,0,.642-0.29l11.224-11.53a1.149,1.149,0,0,0,.27-0.71Zm-10,0a0.926,0.926,0,0,0-.3-0.44l-11.221-11.56a0.838,0.838,0,0,0-1.2,0,0.869,0.869,0,0,0,0,1.23l10.67,11-10.67,10.96a0.866,0.866,0,0,0,0,1.23,0.9,0.9,0,0,0,.615.27,0.82,0.82,0,0,0,.642-0.29l11.224-11.53a1.151,1.151,0,0,0,.271-0.71Z" transform="translate(-958 -5654.03)"/>
</svg>
