<?xml version="1.0" encoding="utf-8"?>
<!-- Generator: Adobe Illustrator 22.1.0, SVG Export Plug-In . SVG Version: 6.00 Build 0)  -->
<svg version="1.1" id="Layer_1" xmlns="http://www.w3.org/2000/svg" xmlns:xlink="http://www.w3.org/1999/xlink" x="0px" y="0px"
	 viewBox="0 0 110.4 110.4" style="enable-background:new 0 0 110.4 110.4;" xml:space="preserve">
<style type="text/css">
	.st0{fill:url(#SVGID_1_);}
</style>
<g>
	<linearGradient id="SVGID_1_" gradientUnits="userSpaceOnUse" x1="0" y1="55.1992" x2="110.4015" y2="55.1992">
		<stop  offset="0%" style="stop-color:#f25cc0"/>
		<stop  offset="100%" style="stop-color:#f25cc0"/>
	</linearGradient>
	<path class="st0" d="M55.2,0C24.8,0,0,24.8,0,55.2s24.8,55.2,55.2,55.2s55.2-24.8,55.2-55.2S85.6,0,55.2,0z M55.2,108.3
		c-29.3,0-53-23.8-53-53s23.8-53,53-53s53,23.8,53,53S84.5,108.3,55.2,108.3z"/>
	<path class="st0" d="M92.1,78H19c-0.6,0-1.1-0.5-1.1-1.1V32.9c0-0.6,0.5-1.1,1.1-1.1h73.1c0.6,0,1.1,0.5,1.1,1.1v44.1
		C93.2,77.5,92.7,78,92.1,78z M20,75.9h71V33.9H20V75.9z"/>
	<path class="st0" d="M80.4,85H31.2c-0.6,0-1.1-0.5-1.1-1.1c0-0.6,0.5-1.1,1.1-1.1h49.1c0.6,0,1.1,0.5,1.1,1.1
		C81.4,84.5,81,85,80.4,85z"/>
	<g>
		<path class="st0" d="M79.2,68.4c-0.2,0-0.3,0-0.5-0.1L34.8,44.6c-0.5-0.3-0.7-0.9-0.4-1.5c0.3-0.5,0.9-0.7,1.5-0.4l43.9,23.7
			c0.5,0.3,0.7,0.9,0.4,1.5C79.9,68.2,79.5,68.4,79.2,68.4z"/>
		<g>
			<polygon class="st0" points="25.9,38.6 36.2,51.1 36,44 42,40.3 			"/>
		</g>
		<g>
			<polygon class="st0" points="72.8,70.2 77.5,66.5 78.1,60.4 87.1,71.6 			"/>
		</g>
	</g>
</g>
</svg>
